# Blender v2.78 (sub 0) OBJ File: ''
# www.blender.org
mtllib planes.mtl
o Plane.004
v -1.000000 0.000000 1.000000
v 1.000000 0.000000 1.000000
v -1.000000 0.000000 -1.000000
v 1.000000 0.000000 -1.000000
v -1.000000 0.000000 -2.000000
v 1.000000 0.000000 -2.000000
v -1.000000 0.000000 -4.000000
v 1.000000 0.000000 -4.000000
v -3.000000 0.000000 -2.000000
v -1.000000 0.000000 -2.000000
v -3.000000 0.000000 -4.000000
v -1.000000 0.000000 -4.000000
v -3.000000 0.000000 -4.000000
v -1.000000 0.000000 -4.000000
v -3.000000 0.000000 -6.000000
v -1.000000 0.000000 -6.000000
v -1.000000 0.000000 -4.000000
v 1.000000 0.000000 -4.000000
v -1.000000 0.000000 -6.000000
v 1.000000 0.000000 -6.000000
vt 0.0001 0.0001
vt 0.9999 0.0001
vt 0.9999 0.9999
vt 0.0001 0.9999
vt 0.0001 0.0001
vt 0.9999 0.0001
vt 0.9999 0.9999
vt 0.0001 0.9999
vt 0.0001 0.0001
vt 0.9999 0.0001
vt 0.9999 0.9999
vt 0.0001 0.9999
vt 0.0001 0.0001
vt 0.9999 0.0001
vt 0.9999 0.9999
vt 0.0001 0.9999
vt 0.0001 0.0001
vt 0.9999 0.0001
vt 0.9999 0.9999
vt 0.0001 0.9999
vn 0.0000 1.0000 0.0000
usemtl None
s off
f 1/1/1 2/2/1 4/3/1 3/4/1
f 5/5/1 6/6/1 8/7/1 7/8/1
f 9/9/1 10/10/1 12/11/1 11/12/1
f 13/13/1 14/14/1 16/15/1 15/16/1
f 17/17/1 18/18/1 20/19/1 19/20/1
