{
	"asset":{
		"generator":"Khronos glTF Blender I/O v3.5.30",
		"version":"2.0"
	},
	"scene":0,
	"scenes":[
		{
			"name":"Scene",
			"nodes":[
				4
			]
		}
	],
	"nodes":[
		{
			"mesh":0,
			"name":"Tree_0_Tree_0Mat_0"
		},
		{
			"children":[
				0
			],
			"name":"Tree_0"
		},
		{
			"children":[
				1
			],
			"name":"RootNode"
		},
		{
			"children":[
				2
			],
			"name":"beech.fbx",
			"rotation":[
				0.70710688829422,
				0,
				0,
				0.7071066498756409
			],
			"scale":[
				0.009999999776482582,
				0.010000000707805157,
				0.010000000707805157
			]
		},
		{
			"children":[
				3
			],
			"name":"Sketchfab_model",
			"rotation":[
				-0.70710688829422,
				0,
				0,
				0.7071066498756409
			]
		}
	],
	"materials":[
		{
			"alphaCutoff":0.22740767896175385,
			"alphaMode":"MASK",
			"doubleSided":true,
			"name":"Tree_1Mat",
			"normalTexture":{
				"index":0
			},
			"pbrMetallicRoughness":{
				"baseColorTexture":{
					"index":1
				},
				"metallicFactor":0,
				"metallicRoughnessTexture":{
					"index":2
				}
			}
		}
	],
	"meshes":[
		{
			"name":"Tree_0_Tree_0Mat_0",
			"primitives":[
				{
					"attributes":{
						"POSITION":0,
						"TEXCOORD_0":1,
						"NORMAL":2
					},
					"indices":3
				},
				{
					"attributes":{
						"POSITION":4,
						"TEXCOORD_0":5,
						"NORMAL":6
					},
					"indices":7,
					"material":0
				}
			]
		}
	],
	"textures":[
		{
			"sampler":0,
			"source":0
		},
		{
			"sampler":0,
			"source":1
		},
		{
			"sampler":0,
			"source":2
		}
	],
	"images":[
		{
			"mimeType":"image/png",
			"name":"Tree_1Mat_normal",
			"uri":"Tree_1Mat_normal.png"
		},
		{
			"mimeType":"image/png",
			"name":"Tree_1Mat_baseColor",
			"uri":"Tree_1Mat_baseColor.png"
		},
		{
			"mimeType":"image/png",
			"name":"Tree_1Mat_metallicRoughness",
			"uri":"Tree_1Mat_metallicRoughness.png"
		}
	],
	"accessors":[
		{
			"bufferView":0,
			"componentType":5126,
			"count":5391,
			"max":[
				135.99327087402344,
				353.9539794921875,
				118.27699279785156
			],
			"min":[
				-111.71092987060547,
				0,
				-109.12217712402344
			],
			"type":"VEC3"
		},
		{
			"bufferView":1,
			"componentType":5126,
			"count":5391,
			"type":"VEC2"
		},
		{
			"bufferView":2,
			"componentType":5126,
			"count":5391,
			"type":"VEC3"
		},
		{
			"bufferView":3,
			"componentType":5123,
			"count":13011,
			"type":"SCALAR"
		},
		{
			"bufferView":4,
			"componentType":5126,
			"count":3360,
			"max":[
				158.6839599609375,
				380.45147705078125,
				140.07337951660156
			],
			"min":[
				-130.81459045410156,
				86.37247467041016,
				-127.93846893310547
			],
			"type":"VEC3"
		},
		{
			"bufferView":5,
			"componentType":5126,
			"count":3360,
			"type":"VEC2"
		},
		{
			"bufferView":6,
			"componentType":5126,
			"count":3360,
			"type":"VEC3"
		},
		{
			"bufferView":7,
			"componentType":5123,
			"count":5040,
			"type":"SCALAR"
		}
	],
	"bufferViews":[
		{
			"buffer":0,
			"byteLength":64692,
			"byteOffset":0,
			"target":34962
		},
		{
			"buffer":0,
			"byteLength":43128,
			"byteOffset":64692,
			"target":34962
		},
		{
			"buffer":0,
			"byteLength":64692,
			"byteOffset":107820,
			"target":34962
		},
		{
			"buffer":0,
			"byteLength":26022,
			"byteOffset":172512,
			"target":34963
		},
		{
			"buffer":0,
			"byteLength":40320,
			"byteOffset":198536,
			"target":34962
		},
		{
			"buffer":0,
			"byteLength":26880,
			"byteOffset":238856,
			"target":34962
		},
		{
			"buffer":0,
			"byteLength":40320,
			"byteOffset":265736,
			"target":34962
		},
		{
			"buffer":0,
			"byteLength":10080,
			"byteOffset":306056,
			"target":34963
		}
	],
	"samplers":[
		{
			"magFilter":9729,
			"minFilter":9987
		}
	],
	"buffers":[
		{
			"byteLength":316136,
			"uri":"t.bin"
		}
	]
}
