{
	"asset":{
		"generator":"Khronos glTF Blender I/O v3.5.30",
		"version":"2.0"
	},
	"scene":0,
	"scenes":[
		{
			"name":"Scene",
			"nodes":[
				8
			]
		}
	],
	"nodes":[
		{
			"mesh":0,
			"name":"pasted__pasted__group13_pasted__pasted__pasted__pCylinder3_scre",
			"scale":[
				0.20058442652225494,
				0.20058439671993256,
				0.20058439671993256
			],
			"translation":[
				0,
				0.0393856018781662,
				-0.1836250126361847
			]
		},
		{
			"children":[
				0
			],
			"name":"pasted__pasted__group13_pasted__pasted__pasted__pCylinder3",
			"rotation":[
				-0.70710688829422,
				0,
				0,
				0.7071066498756409
			]
		},
		{
			"mesh":1,
			"name":"pCube6_woodbase_0",
			"scale":[
				0.20058442652225494,
				0.20058439671993256,
				0.20058439671993256
			],
			"translation":[
				0,
				0.0393855981528759,
				-0.14399157464504242
			]
		},
		{
			"children":[
				2
			],
			"name":"pCube6",
			"rotation":[
				-0.70710688829422,
				0,
				0,
				0.7071066498756409
			]
		},
		{
			"mesh":2,
			"name":"pCube7_rail_0",
			"scale":[
				0.20058442652225494,
				0.20058439671993256,
				0.20058439671993256
			],
			"translation":[
				0,
				0.023433372378349304,
				-0.23519890010356903
			]
		},
		{
			"children":[
				4
			],
			"name":"pCube7",
			"rotation":[
				-0.70710688829422,
				0,
				0,
				0.7071066498756409
			]
		},
		{
			"children":[
				1,
				3,
				5
			],
			"name":"RootNode"
		},
		{
			"children":[
				6
			],
			"name":"5d7650fd1c0a4666a5dbcc48c27ac842.fbx",
			"rotation":[
				0.70710688829422,
				0,
				0,
				0.7071066498756409
			]
		},
		{
			"children":[
				7
			],
			"name":"Sketchfab_model",
			"rotation":[
				-0.70710688829422,
				0,
				0,
				0.7071066498756409
			]
		}
	],
	"materials":[
		{
			"doubleSided":true,
			"name":"screwsbase",
			"normalTexture":{
				"index":0
			},
			"occlusionTexture":{
				"index":1
			},
			"pbrMetallicRoughness":{
				"baseColorFactor":[
					0.8614710569381714,
					0.8614710569381714,
					0.8614710569381714,
					1
				],
				"baseColorTexture":{
					"index":2
				},
				"metallicFactor":0,
				"metallicRoughnessTexture":{
					"index":1
				}
			}
		},
		{
			"doubleSided":true,
			"name":"woodbase",
			"normalTexture":{
				"index":3
			},
			"occlusionTexture":{
				"index":4
			},
			"pbrMetallicRoughness":{
				"baseColorTexture":{
					"index":5
				},
				"metallicFactor":0,
				"metallicRoughnessTexture":{
					"index":4
				}
			}
		},
		{
			"doubleSided":true,
			"name":"rail",
			"pbrMetallicRoughness":{
				"baseColorTexture":{
					"index":6
				},
				"metallicRoughnessTexture":{
					"index":7
				}
			}
		}
	],
	"meshes":[
		{
			"name":"pasted__pasted__group13_pasted__pasted__pasted__pCylinder3_scre",
			"primitives":[
				{
					"attributes":{
						"POSITION":0,
						"TEXCOORD_0":1,
						"NORMAL":2
					},
					"indices":3,
					"material":0
				}
			]
		},
		{
			"name":"pCube6_woodbase_0",
			"primitives":[
				{
					"attributes":{
						"POSITION":4,
						"TEXCOORD_0":5,
						"NORMAL":6
					},
					"indices":7,
					"material":1
				}
			]
		},
		{
			"name":"pCube7_rail_0",
			"primitives":[
				{
					"attributes":{
						"POSITION":8,
						"TEXCOORD_0":9,
						"NORMAL":10
					},
					"indices":11,
					"material":2
				}
			]
		}
	],
	"textures":[
		{
			"sampler":0,
			"source":0
		},
		{
			"sampler":0,
			"source":1
		},
		{
			"sampler":0,
			"source":2
		},
		{
			"sampler":0,
			"source":3
		},
		{
			"sampler":0,
			"source":4
		},
		{
			"sampler":0,
			"source":5
		},
		{
			"sampler":0,
			"source":6
		},
		{
			"sampler":0,
			"source":7
		}
	],
	"images":[
		{
			"mimeType":"image/png",
			"name":"screwsbase_normal",
			"uri":"screwsbase_normal.png"
		},
		{
			"mimeType":"image/png",
			"name":"screwsbase_metallicRoughness",
			"uri":"screwsbase_metallicRoughness.png"
		},
		{
			"mimeType":"image/png",
			"name":"screwsbase_baseColor",
			"uri":"screwsbase_baseColor.png"
		},
		{
			"mimeType":"image/png",
			"name":"woodbase_normal",
			"uri":"woodbase_normal.png"
		},
		{
			"mimeType":"image/png",
			"name":"woodbase_metallicRoughness",
			"uri":"woodbase_metallicRoughness.png"
		},
		{
			"mimeType":"image/png",
			"name":"woodbase_baseColor",
			"uri":"woodbase_baseColor.png"
		},
		{
			"mimeType":"image/png",
			"name":"rail_baseColor",
			"uri":"rail_baseColor.png"
		},
		{
			"mimeType":"image/png",
			"name":"rail_metallicRoughness",
			"uri":"rail_metallicRoughness.png"
		}
	],
	"accessors":[
		{
			"bufferView":0,
			"componentType":5126,
			"count":59442,
			"max":[
				11.584022521972656,
				4.579351425170898,
				0.7611909508705139
			],
			"min":[
				-11.03715705871582,
				-4.940760135650635,
				0.25245341658592224
			],
			"type":"VEC3"
		},
		{
			"bufferView":1,
			"componentType":5126,
			"count":59442,
			"type":"VEC2"
		},
		{
			"bufferView":2,
			"componentType":5126,
			"count":59442,
			"type":"VEC3"
		},
		{
			"bufferView":3,
			"componentType":5123,
			"count":101808,
			"type":"SCALAR"
		},
		{
			"bufferView":4,
			"componentType":5126,
			"count":1248,
			"max":[
				11.940529823303223,
				5.530786991119385,
				0.28093579411506653
			],
			"min":[
				-11.363428115844727,
				-5.430124759674072,
				-0.6196486949920654
			],
			"type":"VEC3"
		},
		{
			"bufferView":5,
			"componentType":5126,
			"count":1248,
			"type":"VEC2"
		},
		{
			"bufferView":6,
			"componentType":5126,
			"count":1248,
			"type":"VEC3"
		},
		{
			"bufferView":7,
			"componentType":5123,
			"count":4284,
			"type":"SCALAR"
		},
		{
			"bufferView":8,
			"componentType":5126,
			"count":669,
			"max":[
				13.350998878479004,
				3.9929325580596924,
				1.222983717918396
			],
			"min":[
				-12.088578224182129,
				-4.2158331871032715,
				0.26815885305404663
			],
			"type":"VEC3"
		},
		{
			"bufferView":9,
			"componentType":5126,
			"count":669,
			"type":"VEC2"
		},
		{
			"bufferView":10,
			"componentType":5126,
			"count":669,
			"type":"VEC3"
		},
		{
			"bufferView":11,
			"componentType":5123,
			"count":1320,
			"type":"SCALAR"
		}
	],
	"bufferViews":[
		{
			"buffer":0,
			"byteLength":713304,
			"byteOffset":0,
			"target":34962
		},
		{
			"buffer":0,
			"byteLength":475536,
			"byteOffset":713304,
			"target":34962
		},
		{
			"buffer":0,
			"byteLength":713304,
			"byteOffset":1188840,
			"target":34962
		},
		{
			"buffer":0,
			"byteLength":203616,
			"byteOffset":1902144,
			"target":34963
		},
		{
			"buffer":0,
			"byteLength":14976,
			"byteOffset":2105760,
			"target":34962
		},
		{
			"buffer":0,
			"byteLength":9984,
			"byteOffset":2120736,
			"target":34962
		},
		{
			"buffer":0,
			"byteLength":14976,
			"byteOffset":2130720,
			"target":34962
		},
		{
			"buffer":0,
			"byteLength":8568,
			"byteOffset":2145696,
			"target":34963
		},
		{
			"buffer":0,
			"byteLength":8028,
			"byteOffset":2154264,
			"target":34962
		},
		{
			"buffer":0,
			"byteLength":5352,
			"byteOffset":2162292,
			"target":34962
		},
		{
			"buffer":0,
			"byteLength":8028,
			"byteOffset":2167644,
			"target":34962
		},
		{
			"buffer":0,
			"byteLength":2640,
			"byteOffset":2175672,
			"target":34963
		}
	],
	"samplers":[
		{
			"magFilter":9729,
			"minFilter":9987
		}
	],
	"buffers":[
		{
			"byteLength":2178312,
			"uri":"r.bin"
		}
	]
}
